<?xml version="1.0" encoding="UTF-8"?><svg xmlns="http://www.w3.org/2000/svg" xmlns:xlink="http://www.w3.org/1999/xlink" fill-opacity="1" color-rendering="auto" color-interpolation="auto" text-rendering="auto" stroke="black" stroke-linecap="square" width="800" stroke-miterlimit="10" shape-rendering="auto" stroke-opacity="1" fill="black" stroke-dasharray="none" font-weight="normal" stroke-width="1" height="413" font-family="'Dialog'" font-style="normal" stroke-linejoin="miter" font-size="12px" stroke-dashoffset="0" image-rendering="auto">
  <!--Generated by ySVG 2.5-->
  <defs id="genericDefs"/>
  <g>
    <defs id="defs1">
      <clipPath clipPathUnits="userSpaceOnUse" id="clipPath1">
        <path d="M0 0 L800 0 L800 413 L0 413 L0 0 Z"/>
      </clipPath>
      <clipPath clipPathUnits="userSpaceOnUse" id="clipPath2">
        <path d="M39 295 L561 295 L561 564.4825 L39 564.4825 L39 295 Z"/>
      </clipPath>
    </defs>
    <g fill="white" text-rendering="geometricPrecision" shape-rendering="geometricPrecision" transform="scale(1.5326,1.5326) translate(-39,-295)" stroke="white">
      <rect x="39" width="522" height="270" y="295" clip-path="url(#clipPath2)" stroke="none"/>
    </g>
    <g fill="rgb(183,201,227)" text-rendering="geometricPrecision" shape-rendering="geometricPrecision" transform="matrix(1.5326,0,0,1.5326,-59.7701,-452.1073)" stroke="rgb(183,201,227)">
      <rect x="404" width="142" height="46" y="502" clip-path="url(#clipPath2)" stroke="none"/>
    </g>
    <g text-rendering="geometricPrecision" stroke-miterlimit="1.45" shape-rendering="geometricPrecision" transform="matrix(1.5326,0,0,1.5326,-59.7701,-452.1073)" stroke-linecap="butt">
      <rect fill="none" x="404" width="142" height="46" y="502" clip-path="url(#clipPath2)"/>
      <text x="439.3105" xml:space="preserve" y="515.0127" clip-path="url(#clipPath2)" font-family="sans-serif" stroke="none">Manipulation,</text>
      <text x="434.3066" xml:space="preserve" y="529.7139" clip-path="url(#clipPath2)" font-family="sans-serif" stroke="none">locomotion and</text>
      <text x="444.3115" xml:space="preserve" y="544.415" clip-path="url(#clipPath2)" font-family="sans-serif" stroke="none">gaze action</text>
    </g>
    <g fill="rgb(255,216,235)" text-rendering="geometricPrecision" shape-rendering="geometricPrecision" transform="matrix(1.5326,0,0,1.5326,-59.7701,-452.1073)" stroke="rgb(255,216,235)">
      <rect x="54" width="142" height="46" y="502" clip-path="url(#clipPath2)" stroke="none"/>
    </g>
    <g text-rendering="geometricPrecision" stroke-miterlimit="1.45" shape-rendering="geometricPrecision" transform="matrix(1.5326,0,0,1.5326,-59.7701,-452.1073)" stroke-linecap="butt">
      <rect fill="none" x="54" width="142" height="46" y="502" clip-path="url(#clipPath2)"/>
      <text x="80.6416" xml:space="preserve" y="515.0127" clip-path="url(#clipPath2)" font-family="sans-serif" stroke="none">Aural, visual and</text>
      <text x="86.9814" xml:space="preserve" y="529.7139" clip-path="url(#clipPath2)" font-family="sans-serif" stroke="none">proprioceprive</text>
      <text x="90.6465" xml:space="preserve" y="544.415" clip-path="url(#clipPath2)" font-family="sans-serif" stroke="none">sensory data</text>
    </g>
    <g fill="rgb(204,255,204)" text-rendering="geometricPrecision" shape-rendering="geometricPrecision" transform="matrix(1.5326,0,0,1.5326,-59.7701,-452.1073)" stroke="rgb(204,255,204)">
      <ellipse rx="71" ry="15" clip-path="url(#clipPath2)" cx="300" cy="475" stroke="none"/>
    </g>
    <g text-rendering="geometricPrecision" stroke-miterlimit="1.45" shape-rendering="geometricPrecision" transform="matrix(1.5326,0,0,1.5326,-59.7701,-452.1073)" stroke-linecap="butt">
      <ellipse rx="71" fill="none" ry="15" clip-path="url(#clipPath2)" cx="300" cy="475"/>
      <text x="243.9697" xml:space="preserve" y="479.7139" clip-path="url(#clipPath2)" font-family="sans-serif" stroke="none">Reactive Component</text>
    </g>
    <g fill="rgb(183,201,227)" text-rendering="geometricPrecision" shape-rendering="geometricPrecision" transform="matrix(1.5326,0,0,1.5326,-59.7701,-452.1073)" stroke="rgb(183,201,227)">
      <ellipse rx="71" ry="15" clip-path="url(#clipPath2)" cx="475" cy="475" stroke="none"/>
    </g>
    <g text-rendering="geometricPrecision" stroke-miterlimit="1.45" shape-rendering="geometricPrecision" transform="matrix(1.5326,0,0,1.5326,-59.7701,-452.1073)" stroke-linecap="butt">
      <ellipse rx="71" fill="none" ry="15" clip-path="url(#clipPath2)" cx="475" cy="475"/>
      <text x="458.3242" xml:space="preserve" y="479.7139" clip-path="url(#clipPath2)" font-family="sans-serif" stroke="none">Action</text>
    </g>
    <g fill="rgb(204,255,204)" text-rendering="geometricPrecision" shape-rendering="geometricPrecision" transform="matrix(1.5326,0,0,1.5326,-59.7701,-452.1073)" stroke="rgb(204,255,204)">
      <ellipse rx="71" ry="15" clip-path="url(#clipPath2)" cx="297" cy="325" stroke="none"/>
    </g>
    <g text-rendering="geometricPrecision" stroke-miterlimit="1.45" shape-rendering="geometricPrecision" transform="matrix(1.5326,0,0,1.5326,-59.7701,-452.1073)" stroke-linecap="butt">
      <ellipse rx="71" fill="none" ry="15" clip-path="url(#clipPath2)" cx="297" cy="325"/>
      <text x="245.6426" xml:space="preserve" y="329.7139" clip-path="url(#clipPath2)" font-family="sans-serif" stroke="none">A-Priori Knowledge</text>
      <ellipse rx="71" fill="none" ry="15" clip-path="url(#clipPath2)" cx="300" cy="375"/>
      <text x="255.9814" xml:space="preserve" y="379.7139" clip-path="url(#clipPath2)" font-family="sans-serif" stroke="none">Decision Making</text>
    </g>
    <g fill="rgb(204,255,204)" text-rendering="geometricPrecision" shape-rendering="geometricPrecision" transform="matrix(1.5326,0,0,1.5326,-59.7701,-452.1073)" stroke="rgb(204,255,204)">
      <ellipse rx="71" ry="15" clip-path="url(#clipPath2)" cx="300" cy="425" stroke="none"/>
    </g>
    <g text-rendering="geometricPrecision" stroke-miterlimit="1.45" shape-rendering="geometricPrecision" transform="matrix(1.5326,0,0,1.5326,-59.7701,-452.1073)" stroke-linecap="butt">
      <ellipse rx="71" fill="none" ry="15" clip-path="url(#clipPath2)" cx="300" cy="425"/>
      <text x="243.6387" xml:space="preserve" y="429.7139" clip-path="url(#clipPath2)" font-family="sans-serif" stroke="none">Linguistic Processing</text>
    </g>
    <g fill="rgb(255,216,235)" text-rendering="geometricPrecision" shape-rendering="geometricPrecision" transform="matrix(1.5326,0,0,1.5326,-59.7701,-452.1073)" stroke="rgb(255,216,235)">
      <ellipse rx="71" ry="15" clip-path="url(#clipPath2)" cx="125" cy="475" stroke="none"/>
    </g>
    <g text-rendering="geometricPrecision" stroke-miterlimit="1.45" shape-rendering="geometricPrecision" transform="matrix(1.5326,0,0,1.5326,-59.7701,-452.1073)" stroke-linecap="butt">
      <ellipse rx="71" fill="none" ry="15" clip-path="url(#clipPath2)" cx="125" cy="475"/>
      <text x="96.3154" xml:space="preserve" y="479.7139" clip-path="url(#clipPath2)" font-family="sans-serif" stroke="none">Perception</text>
    </g>
    <g fill="rgb(204,255,204)" text-rendering="geometricPrecision" shape-rendering="geometricPrecision" transform="matrix(1.5326,0,0,1.5326,-59.7701,-452.1073)" stroke="rgb(204,255,204)">
      <ellipse rx="71" ry="15" clip-path="url(#clipPath2)" cx="125" cy="425" stroke="none"/>
    </g>
    <g text-rendering="geometricPrecision" stroke-miterlimit="1.45" shape-rendering="geometricPrecision" transform="matrix(1.5326,0,0,1.5326,-59.7701,-452.1073)" stroke-linecap="butt">
      <ellipse rx="71" fill="none" ry="15" clip-path="url(#clipPath2)" cx="125" cy="425"/>
      <text x="101.3164" xml:space="preserve" y="429.7139" clip-path="url(#clipPath2)" font-family="sans-serif" stroke="none">Attention</text>
    </g>
    <g fill="rgb(204,255,204)" text-rendering="geometricPrecision" shape-rendering="geometricPrecision" transform="matrix(1.5326,0,0,1.5326,-59.7701,-452.1073)" stroke="rgb(204,255,204)">
      <ellipse rx="71" ry="15" clip-path="url(#clipPath2)" cx="125" cy="375" stroke="none"/>
    </g>
    <g text-rendering="geometricPrecision" stroke-miterlimit="1.45" shape-rendering="geometricPrecision" transform="matrix(1.5326,0,0,1.5326,-59.7701,-452.1073)" stroke-linecap="butt">
      <ellipse rx="71" fill="none" ry="15" clip-path="url(#clipPath2)" cx="125" cy="375"/>
      <text x="71.3281" xml:space="preserve" y="379.7139" clip-path="url(#clipPath2)" font-family="sans-serif" stroke="none">Short-Term Memory</text>
    </g>
    <g fill="rgb(204,255,204)" text-rendering="geometricPrecision" shape-rendering="geometricPrecision" transform="matrix(1.5326,0,0,1.5326,-59.7701,-452.1073)" stroke="rgb(204,255,204)">
      <ellipse rx="71" ry="15" clip-path="url(#clipPath2)" cx="125" cy="325" stroke="none"/>
    </g>
    <g text-rendering="geometricPrecision" stroke-miterlimit="1.45" shape-rendering="geometricPrecision" transform="matrix(1.5326,0,0,1.5326,-59.7701,-452.1073)" stroke-linecap="butt">
      <ellipse rx="71" fill="none" ry="15" clip-path="url(#clipPath2)" cx="125" cy="325"/>
      <text x="72.3213" xml:space="preserve" y="329.7139" clip-path="url(#clipPath2)" font-family="sans-serif" stroke="none">Long-Term Memory</text>
      <path fill="none" stroke-dasharray="6,2" d="M371 475 L396 475" clip-path="url(#clipPath2)"/>
      <path stroke-dasharray="6,2" d="M404 475 L392 470 L395 475 L392 480 Z" clip-path="url(#clipPath2)" stroke="none"/>
      <path fill="none" d="M475 490 L475 502" clip-path="url(#clipPath2)"/>
      <path fill="none" d="M297.8999 339.9988 L298.6209 352.0156" clip-path="url(#clipPath2)"/>
      <path d="M299.1001 360.0012 L303.3724 347.7233 L298.561 351.0173 L293.3904 348.3222 Z" clip-path="url(#clipPath2)" stroke="none"/>
      <path fill="none" d="M324.6211 389.0692 L443.4329 456.9617" clip-path="url(#clipPath2)"/>
      <path d="M450.3789 460.9308 L442.4406 450.6359 L442.5647 456.4655 L437.4793 459.3183 Z" clip-path="url(#clipPath2)" stroke="none"/>
      <path fill="none" d="M300 410 L300 398" clip-path="url(#clipPath2)"/>
      <path d="M300 390 L295 402 L300 399 L305 402 Z" clip-path="url(#clipPath2)" stroke="none"/>
      <path fill="none" d="M125 502 L125 490" clip-path="url(#clipPath2)"/>
      <path fill="none" stroke-dasharray="6,2" d="M196 475 L221 475" clip-path="url(#clipPath2)"/>
      <path stroke-dasharray="6,2" d="M229 475 L217 470 L220 475 L217 480 Z" clip-path="url(#clipPath2)" stroke="none"/>
      <path fill="none" d="M125 460 L125 448" clip-path="url(#clipPath2)"/>
      <path d="M125 440 L120 452 L125 449 L130 452 Z" clip-path="url(#clipPath2)" stroke="none"/>
      <path fill="none" d="M167.2131 412.9391 L250.0947 389.2586" clip-path="url(#clipPath2)"/>
      <path d="M257.7869 387.0609 L244.875 385.5499 L249.1332 389.5334 L247.6222 395.1651 Z" clip-path="url(#clipPath2)" stroke="none"/>
      <path fill="none" d="M196 425 L221 425" clip-path="url(#clipPath2)"/>
      <path d="M229 425 L217 420 L220 425 L217 430 Z" clip-path="url(#clipPath2)" stroke="none"/>
      <path fill="none" d="M125 410 L125 398" clip-path="url(#clipPath2)"/>
      <path d="M125 390 L120 402 L125 399 L130 402 Z" clip-path="url(#clipPath2)" stroke="none"/>
      <path fill="none" d="M196 375 L221 375" clip-path="url(#clipPath2)"/>
      <path d="M229 375 L217 370 L220 375 L217 380 Z" clip-path="url(#clipPath2)" stroke="none"/>
      <path fill="none" d="M125 360 L125 348" clip-path="url(#clipPath2)"/>
      <path d="M125 340 L120 352 L125 349 L130 352 Z" clip-path="url(#clipPath2)" stroke="none"/>
      <path fill="none" d="M167.2131 337.0609 L250.0947 360.7414" clip-path="url(#clipPath2)"/>
      <path d="M257.7869 362.9391 L247.6222 354.8349 L249.1332 360.4666 L244.875 364.4501 Z" clip-path="url(#clipPath2)" stroke="none"/>
    </g>
  </g>
</svg>
